# AST/ASF file generated using VICON BodyLanguage
# -----------------------------------------------
:version 1.10
:name VICON
:units
  mass 1.0
  length 0.45
  angle deg
:documentation
   .ast/.asf automatically generated from VICON data using
   VICON BodyBuilder and BodyLanguage model FoxedUp or BRILLIANT.MOD
:root
   order TX TY TZ RX RY RZ
   axis XYZ
   position 0 0 0  
   orientation 0 0 0 
:bonedata
  begin
     id 1 
     name lhipjoint
     direction 0.603808 -0.713975 0.35448 
     length 2.2025 
     axis 0 0 0  XYZ
  end
  begin
     id 2 
     name lfemur
     direction 0.34202 -0.939693 0  
     length 6.55877  
     axis 0 0 20  XYZ
    dof rx ry rz
    limits (-160.0 20.0)
           (-70.0 70.0)
           (-60.0 70.0)
  end
  begin
     id 3 
     name ltibia
     direction 0.34202 -0.939693 0   
     length 6.80302   
     axis 0 0 20   XYZ
    dof rx
    limits (-10.0 170.0)
  end
  begin
     id 4 
     name lfoot
     direction 0.091848 -0.25235 0.963267   
     length 2.03446   
     axis -90 7.62852e-016 20   XYZ
    dof rx rz
    limits (-45.0 90.0)
           (-70.0 20.0)
  end
  begin
     id 5 
     name ltoes
     direction 1.53608e-011 -4.21925e-011 1   
     length 1.02033   
     axis -90 7.62852e-016 20   XYZ
    dof rx
    limits (-90.0 20.0)
  end
  begin
     id 6 
     name rhipjoint
     direction -0.587285 -0.724947 0.359928   
     length 2.16916  
     axis 0 0 0  XYZ 
  end
  begin
     id 7 
     name rfemur
     direction -0.34202 -0.939693 0   
     length 6.43173   
     axis 0 0 -20   XYZ
    dof rx ry rz
    limits (-160.0 20.0)
           (-70.0 70.0)
           (-70.0 60.0)
  end
  begin
     id 8 
     name rtibia
     direction -0.34202 -0.939693 0   
     length 6.70662   
     axis 0 0 -20   XYZ
    dof rx
    limits (-10.0 170.0)
 end
 begin
     id 9 
     name rfoot
     direction -0.11854 -0.325686 0.938018   
     length 2.0773  
     axis -90 -7.62852e-016 -20   XYZ
    dof rx rz
    limits (-45.0 90.0)
           (-20.0 70.0)
  end
  begin
     id 10 
     name rtoes
     direction -1.53547e-011 -4.21838e-011 1   
     length 1.03267   
     axis -90 -7.62852e-016 -20   XYZ
    dof rx
    limits (-90.0 20.0)
  end
  begin
     id 11 
     name lowerback
     direction -0.0286554 0.999539 0.0100613   
     length 2.08751   
     axis 0 0 0   XYZ
    dof rx ry rz
    limits (-20.0 45.0)
           (-30.0 30.0)
           (-30.0 30.0)
  end
  begin
     id 12 
     name upperback
     direction 0.0227093 0.999705 -0.00860929   
     length 2.08517   
     axis 0 0 0   XYZ
    dof rx ry rz
    limits (-20.0 45.0)
           (-30.0 30.0)
           (-30.0 30.0)
  end
  begin
     id 13 
     name thorax
     direction 0.0351627 0.999285 -0.013892   
     length 2.08412   
     axis 0 0 0   XYZ
    dof rx ry rz
    limits (-20.0 45.0)
           (-30.0 30.0)
           (-30.0 30.0)
  end
  begin
     id 14 
     name lowerneck
     direction -0.0696283 0.997344 0.0213922   
     length 1.44164   
     axis 0 0 0   XYZ
    dof rx ry rz
    limits (-20.0 45.0)
           (-30.0 30.0)
           (-30.0 30.0)
  end
  begin
     id 15 
     name upperneck
     direction 0.0531 0.990412 -0.127531   
     length 1.45022   
     axis 0 0 0   XYZ
    dof rx ry rz
    limits (-20.0 45.0)
           (-30.0 30.0)
           (-30.0 30.0)
  end
  begin
     id 16
     name head
     direction 0.0188154 0.998548 -0.0504727  
     length 1.45845  
     axis 0 0 0   XYZ
    dof rx ry rz
    limits (-20.0 45.0)
           (-30.0 30.0)
           (-30.0 30.0)
  end
  begin
     id 17 
     name lclavicle
     direction 0.961559 0.260051 0.088188  
     length 2.86057  
     axis 0 0 0   XYZ
    dof ry rz
    limits (-20.0 10.0)
           (0.0 20.0)
  end
  begin
     id 18 
     name lhumerus
     direction 1 -4.48959e-011 2.88185e-027   
     length 4.36901   
     axis 180 -30 -90   XYZ
    dof rx ry rz
    limits (-60.0 90.0)
           (-90.0 90.0)
           (-90.0 90.0)
  end
  begin
     id 19
     name lradius
     direction 1 -4.48965e-011 -3.92618e-028   
     length 3.21737   
     axis 180 -30 -90   XYZ
    dof rx
    limits (-10.0 170.0)
  end
  begin
     id 20
     name lwrist
     direction 1 -4.49037e-011 2.57246e-027   
     length 1.60869   
     axis -1.61769e-015 90 90   XYZ
    dof ry
    limits (-180.0 0.0)
 end
  begin
     id 21 
     name lhand
     direction 1 -4.48807e-011 5.12958e-027   
     length 0.564313   
     axis -3.27988e-015 90 90   XYZ
    dof rx rz
    limits (-90.0 90.0)
           (-45.0 45.0)
  end
  begin
     id 22 
     name lfingers
     direction 1 -4.48879e-011 1.02687e-026   
     length 0.454963   
     axis -6.5598e-015 90 90   XYZ
    dof rx
    limits (0.0 90.0)
  end
  begin
     id 23
     name lthumb
     direction 0.707107 -6.3475e-011 0.707107   
     length 0.653239   
     axis -90 45 2.19363e-014   XYZ
    dof rx rz
    limits (-45.0 45.0)
           (-45.0 45.0)
  end
  begin
     id 24 
     name rclavicle
     direction -0.954677 0.253915 0.155304   
     length 3.11497  
     axis 0 0 0   XYZ 
    dof ry rz
    limits (-10.0 20.0)
           (-20.0 0.0)
  end
  begin
     id 25 
     name rhumerus
     direction -1 -4.48958e-011 -8.20169e-028  
     length 4.34118   
     axis 180 30 90   XYZ
    dof rx ry rz
    limits (-90.0 60.0)
           (-90.0 90.0)
           (-90.0 90.0)
  end
  begin
     id 26 
     name rradius
     direction -1 -4.48978e-011 1.5676e-027   
     length 3.09531   
     axis 180 30 90   XYZ
    dof rx
    limits (-10.0 170.0)
  end
  begin
     id 27 
     name rwrist
     direction -1 -4.49001e-011 2.57123e-027   
     length 1.54765   
     axis -1.61769e-015 -90 -90   XYZ
    dof ry
    limits (-180.0 0.0)
  end
  begin
     id 28
     name rhand
     direction -1 -4.48847e-011 5.13225e-027   
     length 0.597446   
     axis -3.27988e-015 -90 -90   XYZ
    dof rx rz
    limits (-90.0 90.0)
           (-45.0 45.0)
  end
  begin
     id 29
     name rfingers
     direction -1 -4.49094e-011 1.02974e-026   
     length 0.481677   
     axis -6.5598e-015 -90 -90   XYZ
    dof rx
    limits (0.0 90.0)
  end
  begin
     id 30
     name rthumb
     direction -0.707107 -6.34859e-011 0.707107   
     length 0.691594   
     axis -90 -45 -2.19363e-014   XYZ
    dof rx rz
    limits (-45.0 45.0)
           (-45.0 45.0)
  end
:hierarchy
  begin
    root lhipjoint rhipjoint lowerback
    lhipjoint lfemur
    lfemur ltibia
    ltibia lfoot
    lfoot ltoes
    rhipjoint rfemur
    rfemur rtibia
    rtibia rfoot
    rfoot rtoes
    lowerback upperback
    upperback thorax
    thorax lowerneck lclavicle rclavicle
    lowerneck upperneck
    upperneck head
    lclavicle lhumerus
    lhumerus lradius
    lradius lwrist
    lwrist lhand lthumb
    lhand lfingers
    rclavicle rhumerus
    rhumerus rradius
    rradius rwrist
    rwrist rhand rthumb
    rhand rfingers
  end

#!OML:ASF I:\Acrobat_Osman\acrobat\cartwheel_test 2\Patient 1\Session 1\acrobat.ASF
:FULLY-SPECIFIED
:DEGREES
204
root 8.66661 4.99176 12.2728 -26.2673 -20.6263 11.2643
lowerback 28.7798 -4.12964 -7.11814
upperback 11.8984 -7.37424 2.29692
thorax -1.06557 -4.21939 8.65765
lowerneck -4.11798 5.61291 -2.23254
upperneck -4.36048 7.46103 -3.94314
head -0.58694 3.77413 -0.784364
rclavicle -6.36111e-015 -9.54166e-015
rhumerus -69.8534 -29.006 -6.5965
rradius 26.5561
rwrist -14.5329
rhand -31.3774 6.3305
rfingers 7.12502
rthumb -4.64757 -23.5985
lclavicle -6.36111e-015 -9.54166e-015
lhumerus 17.62 12.1871 63.5784
lradius 36.7201
lwrist 66.1333
lhand -29.0207 61.6049
lfingers 7.12502
lthumb -2.37168 -91.5715
rfemur -111.656 -23.4574 14.1906
rtibia 148.051
rfoot -22.4988 16.2765
rtoes -0.49148
lfemur -294.758 56.6686 -196.485
ltibia 150.674
lfoot -58.239 -30.7692
ltoes -19.6997
205
root 8.73731 4.82246 12.2789 -29.4671 -18.2102 11.1528
lowerback 27.9451 -5.66537 -5.65161
upperback 11.3999 -8.90543 3.03667
thorax -1.05447 -4.93976 8.96027
lowerneck -4.25723 5.17112 -2.4789
upperneck -4.90071 6.86299 -3.57991
head -0.756345 3.48178 -0.647635
rclavicle -3.33958e-014 -2.8625e-014
rhumerus -72.1281 -29.4225 0.897786
rradius 26.0662
rwrist -13.7946
rhand -33.1896 5.44664
rfingers 7.12502
rthumb -6.39724 -24.4368
lclavicle -3.33958e-014 -2.8625e-014
lhumerus 21.3694 13.6647 59.0196
lradius 39.363
lwrist 69.6547
lhand -28.6214 59.6722
lfingers 7.12502
lthumb -1.98608 -270.357
rfemur -109.57 -28.7992 12.4238
rtibia 148.971
rfoot -23.6636 17.6602
rtoes -1.85899
lfemur -301.767 60.8575 -203.154
ltibia 152.078
lfoot -54.654 -30.0479
ltoes -19.5598
206
root 8.79746 4.79928 12.2614 -33.699 -17.0441 11.4903
lowerback 27.7804 -6.60376 -4.15467
upperback 10.9111 -9.71838 3.58271
thorax -1.53161 -5.27386 8.95213
lowerneck -4.76159 4.73713 -2.37108
upperneck -5.60506 6.28296 -2.78786
head -0.916614 3.18651 -0.428943
rclavicle 2.94201e-014 1.27222e-014
rhumerus -74.0284 -28.944 6.79728
rradius 26.0766
rwrist -14.5036
rhand -34.8376 4.62029
rfingers 7.12502
rthumb -7.98805 -25.2088
lclavicle 2.94201e-014 1.27222e-014
lhumerus 25.6051 16.2668 55.375
lradius 42.8871
lwrist 71.8472
lhand -28.6734 58.7077
lfingers 7.12502
lthumb -2.03631 -271.322
rfemur -103.168 -29.2536 7.99851
rtibia 148.665
rfoot -24.8009 17.6121
rtoes -2.6146
lfemur -312.087 62.8515 -215.019
ltibia 152.309
lfoot -51.4103 -29.0272
ltoes -18.254
207
root 8.84392 4.85292 12.2371 -37.033 -15.6356 11.8782
lowerback 25.8308 -7.31751 -2.10742
upperback 10.8075 -10.137 3.73256
thorax -1.00754 -5.42708 7.80209
lowerneck -7.52153 3.68844 -0.517629
upperneck -5.37366 4.8339 -2.37303
head -0.370218 2.39375 -0.546476
rclavicle 1.33583e-013 -1.59028e-014
rhumerus -78.0404 -29.3603 12.7413
rradius 26.6278
rwrist -15.8008
rhand -35.8609 3.9192
rfingers 7.12502
rthumb -8.97559 -25.8699
lclavicle 1.33583e-013 -1.59028e-014
lhumerus 31.9487 17.7246 50.8978
lradius 45.6862
lwrist 76.118
lhand -30.285 58.5794
lfingers 7.12502
lthumb -3.59272 -271.471
rfemur -96.894 -28.6997 3.34958
rtibia 147.845
rfoot -25.2319 17.2754
rtoes -2.05749
lfemur -323.829 65.2284 -229.65
ltibia 151.855
lfoot -47.6652 -27.8112
ltoes -18.3315
208
root 8.86438 5.04307 12.1744 -42.3003 -12.3558 15.8863
lowerback 25.0018 -7.8912 -5.84034
upperback 9.50225 -11.7848 3.65265
thorax -1.06626 -6.35273 10.0719
lowerneck -5.89627 3.46058 -2.21306
upperneck -6.87027 4.58423 -1.50168
head -1.15469 2.31735 -0.0676831
rclavicle -1.46306e-013 6.36111e-015
rhumerus -76.4354 -29.7773 17.5749
rradius 26.9826
rwrist -16.4219
rhand -36.3863 3.59295
rfingers 7.12502
rthumb -9.48253 -26.1737
lclavicle -1.46306e-013 6.36111e-015
lhumerus 32.2817 21.8974 45.2872
lradius 48.8922
lwrist 80.4104
lhand -31.4759 56.7997
lfingers 7.12502
lthumb -4.7427 -273.273
rfemur -88.3247 -27.0814 -6.4257
rtibia 146.071
rfoot -26.213 17.7624
rtoes -1.12396
lfemur -341.479 64.6578 -259.117
ltibia 149.371
lfoot -44.1702 -24.4798
ltoes -20.5574
209
root 8.90117 5.34606 12.101 -50.1136 -6.14885 22.8287
lowerback 26.3518 -7.20951 -13.6676
upperback 8.48243 -13.1053 2.29264
thorax -1.05742 -7.1861 13.345
lowerneck -5.6757 3.12148 -3.12051
upperneck -7.72508 4.13542 -1.35236
head -1.48407 2.11574 0.110012
rclavicle 7.7526e-014 -9.22361e-014
rhumerus -74.7312 -31.2977 21.7622
rradius 27.9466
rwrist -18.551
rhand -36.8251 3.47017
rfingers 7.12502
rthumb -9.90593 -26.2768
lclavicle 7.7526e-014 -9.22361e-014
lhumerus 33.2065 27.1537 40.8873
lradius 51.5568
lwrist 82.311
lhand -31.2751 56.3142
lfingers 7.12502
lthumb -4.54878 -273.755
rfemur -76.5112 -22.6179 -22.1483
rtibia 142.92
rfoot -29.0307 19.6943
rtoes -3.79942
lfemur -360.676 57.4946 -299.948
ltibia 144.865
lfoot -38.493 -19.6471
ltoes -22.9053
210
root 8.9422 5.83271 11.9646 -52.7064 -9.90546 23.1933
lowerback 23.2391 -8.12454 -9.15648
upperback 7.32837 -12.8491 4.14591
thorax -1.52024 -6.88461 12.5025
lowerneck -5.96213 2.65525 -3.56595
upperneck -8.54985 3.50312 -1.30399
head -1.70476 1.80959 0.194186
rclavicle 1.40342e-013 -6.36111e-014
rhumerus -72.7615 -32.9889 24.5341
rradius 29.8191
rwrist -22.9963
rhand -37.2218 3.38043
rfingers 7.12502
rthumb -10.2886 -26.3479
lclavicle 1.40342e-013 -6.36111e-014
lhumerus 34.7004 32.2926 36.589
lradius 53.0039
lwrist 84.0827
lhand -31.7487 56.7042
lfingers 7.12502
lthumb -5.00612 -273.375
rfemur -70.5063 -6.23289 -16.4063
rtibia 139.1
rfoot -27.9514 10.8827
rtoes -9.00559
lfemur -360.994 53.1135 -302.677
ltibia 140.722
lfoot -33.7481 -22.4388
ltoes -24.4591
211
root 8.96439 6.33919 11.8328 -54.3572 -11.8147 25.0057
lowerback 18.879 -8.83354 -6.23993
upperback 5.60876 -12.8683 5.85819
thorax -1.45393 -6.77805 12.1459
lowerneck -7.2015 2.30743 -4.30376
upperneck -9.06033 3.10722 -0.900999
head -1.68031 1.61405 0.453079
rclavicle -1.34378e-013 -4.13472e-014
rhumerus -70.2257 -35.3099 26.818
rradius 32.4454
rwrist -27.7968
rhand -37.7876 4.32735
rfingers 7.12502
rthumb -10.8344 -25.3732
lclavicle -1.34378e-013 -4.13472e-014
lhumerus 35.502 37.2208 32.3918
lradius 54.2239
lwrist 85.2882
lhand -32.1632 56.1364
lfingers 7.12502
lthumb -5.4063 -273.953
rfemur -66.7217 2.52082 -12.7399
rtibia 135.484
rfoot -24.3818 4.90124
rtoes -6.23197
lfemur -363.364 50.1739 -310.356
ltibia 136.143
lfoot -26.7909 -24.851
ltoes -25.6908
212
root 8.98536 6.87189 11.7182 -55.6953 -12.2436 28.4834
lowerback 13.8311 -9.31299 -4.63518
upperback 3.246 -12.9886 7.23535
thorax -1.36282 -6.71326 12.0266
lowerneck -7.64326 2.18857 -3.61941
upperneck -9.8155 2.79656 -2.24112
head -1.81031 1.44396 -0.0796113
rclavicle 6.20208e-014 -2.8625e-014
rhumerus -66.0411 -38.003 27.8319
rradius 35.2369
rwrist -32.56
rhand -38.7844 7.53931
rfingers 7.12502
rthumb -11.7957 -22.1085
lclavicle 6.20208e-014 -2.8625e-014
lhumerus 35.3351 42.0737 27.4527
lradius 54.7269
lwrist 86.0982
lhand -32.1291 55.1263
lfingers 7.12502
lthumb -5.37335 -274.962
rfemur -64.5206 7.22241 -12.4804
rtibia 131.831
rfoot -20.5082 1.49013
rtoes -2.80574
lfemur -364.707 48.0869 -319.75
ltibia 130.919
lfoot -17.5891 -27.6734
ltoes -23.8418
213
root 8.99161 7.4247 11.5722 -56.9838 -11.7082 32.7116
lowerback 8.91402 -9.46198 -3.55288
upperback 0.600207 -12.8348 8.47445
thorax -1.50438 -6.49823 12.0714
lowerneck -8.03633 1.85037 -4.78428
upperneck -10.6267 2.44941 -1.0449
head -2.04661 1.28588 0.486748
rclavicle 4.29375e-014 6.36111e-015
rhumerus -60.1345 -41.2111 27.5302
rradius 37.1836
rwrist -27.6954
rhand -48.504 26.3936
rfingers 7.12502
rthumb -21.1526 -2.47248
lclavicle 4.29375e-014 6.36111e-015
lhumerus 35.4038 45.7586 22.2557
lradius 53.6374
lwrist 82.5395
lhand -33.0646 53.4088
lfingers 7.12502
lthumb -6.27658 -276.704
rfemur -63.3107 10.4903 -14.0857
rtibia 127.951
rfoot -15.5177 -0.511821
rtoes -4.12807
lfemur -365.858 46.6395 -329.713
ltibia 124.929
lfoot -8.03366 -30.0447
ltoes -25.4863
214
root 8.98364 8.08826 11.3704 -60.8094 -10.0034 36.7707
lowerback 6.01449 -9.44269 -2.16688
upperback -1.17678 -12.5474 9.00563
thorax -2.02955 -6.24297 11.5149
lowerneck -9.60432 1.51807 -4.28819
upperneck -10.542 1.95501 -2.06274
head -1.7299 1.00198 0.0925021
rclavicle -3.81667e-014 -4.13472e-014
rhumerus -55.6488 -46.7315 30.3518
rradius 38.4043
rwrist -22.2355
rhand -52.6325 44.4125
rfingers 7.12502
rthumb -25.1137 16.0441
lclavicle -3.81667e-014 -4.13472e-014
lhumerus 35.1857 48.7433 16.6542
lradius 51.5364
lwrist 78.197
lhand -31.9443 54.3564
lfingers 7.12502
lthumb -5.19496 -275.727
rfemur -57.3867 15.4962 -15.8332
rtibia 122.64
rfoot -11.0366 -3.07216
rtoes -2.92396
lfemur -363.172 42.2877 -339.306
ltibia 116.423
lfoot 3.7616 -32.8104
ltoes -26.7822
215
root 8.94405 8.72235 11.1546 -66.315 -7.08752 39.7389
lowerback 4.91055 -10.0537 -1.48156
upperback -2.92567 -13.1621 9.26423
thorax -3.22942 -6.4223 11.431
lowerneck -10.2083 1.33113 -5.6709
upperneck -9.38541 1.98919 -0.179925
head -1.30432 1.02794 0.924606
rclavicle 1.44715e-013 1.66979e-014
rhumerus -47.9781 -51.3731 29.5982
rradius 39.2009
rwrist -16.9043
rhand -53.4936 57.7475
rfingers 7.12502
rthumb -25.9385 29.4972
lclavicle 1.44715e-013 1.66979e-014
lhumerus 35.6615 50.9177 12.6637
lradius 48.7707
lwrist 75.5503
lhand -33.0559 53.8579
lfingers 7.12502
lthumb -6.26819 -276.255
rfemur -48.4191 20.0842 -16.1046
rtibia 116.904
rfoot -5.96547 -7.85787
rtoes -1.06914
lfemur -357.155 37.0154 -345.568
ltibia 107.116
lfoot 19.6621 -34.4267
ltoes -25.1836
